<?xml version="1.0" encoding="UTF-8" standalone="no"?>
<!-- Generator: Adobe Illustrator 19.0.1, SVG Export Plug-In . SVG Version: 6.00 Build 0)  -->

<svg
   version="1.1"
   id="Layer_1"
   x="0px"
   y="0px"
   viewBox="0 0 275.79998 253.0517"
   xml:space="preserve"
   inkscape:version="1.3 (0e150ed6c4, 2023-07-21)"
   sodipodi:docname="beta_logo_vector.svg"
   width="275.79999"
   height="253.0517"
   xmlns:inkscape="http://www.inkscape.org/namespaces/inkscape"
   xmlns:sodipodi="http://sodipodi.sourceforge.net/DTD/sodipodi-0.dtd"
   xmlns="http://www.w3.org/2000/svg"
   xmlns:svg="http://www.w3.org/2000/svg"
   xmlns:rdf="http://www.w3.org/1999/02/22-rdf-syntax-ns#"
   xmlns:cc="http://creativecommons.org/ns#"
   xmlns:dc="http://purl.org/dc/elements/1.1/"><metadata
     id="metadata4190"><rdf:RDF><cc:Work
         rdf:about=""><dc:format>image/svg+xml</dc:format><dc:type
           rdf:resource="http://purl.org/dc/dcmitype/StillImage" /></cc:Work></rdf:RDF></metadata><defs
     id="defs4188" /><sodipodi:namedview
     pagecolor="#ffffff"
     bordercolor="#666666"
     borderopacity="1"
     objecttolerance="10"
     gridtolerance="10"
     guidetolerance="10"
     inkscape:pageopacity="0"
     inkscape:pageshadow="2"
     inkscape:window-width="2560"
     inkscape:window-height="1052"
     id="namedview4186"
     showgrid="true"
     inkscape:zoom="0.1489899"
     inkscape:cx="-362.44067"
     inkscape:cy="-271.83051"
     inkscape:window-x="0"
     inkscape:window-y="0"
     inkscape:window-maximized="1"
     inkscape:current-layer="Layer_1"
     fit-margin-top="10"
     fit-margin-left="10"
     fit-margin-right="10"
     fit-margin-bottom="10"
     inkscape:showpageshadow="2"
     inkscape:pagecheckerboard="0"
     inkscape:deskcolor="#d1d1d1"><inkscape:grid
       type="xygrid"
       id="grid3785"
       originx="6.0000002"
       originy="-545.20001"
       spacingy="1"
       spacingx="1"
       units="px"
       visible="true" /></sodipodi:namedview><style
     type="text/css"
     id="style4178">&#10;	.st0{fill:#921B1D;}&#10;	.st1{fill:#383837;}&#10;</style><path
     style="fill:#383837"
     d="m 144.80078,14.152086 c -7.8,24.3 -15.40565,48.94308 -22.90565,72.64308 h 13.09103 c 5.9,-19.1 12.11345,-39.14425 18.11345,-58.34425 17.7,4.3 51.20117,12.30078 51.20117,12.30078 l 2.59961,-12.69922 c 0,0 -41.39961,-9.300389 -62.09961,-13.90039 z"
     id="path4184"
     inkscape:connector-curvature="0"
     sodipodi:nodetypes="ccccccc"
     inkscape:export-xdpi="5.792706"
     inkscape:export-ydpi="5.792706" /><path
     class="st0"
     d="m 265.8,136.0517 c 0,35.7 0,71.3 0,107 -85.2,0 -170.4,0 -255.8,0 0,-35.9 0,-71.2 0,-106.8 16.3,0 32.4,0 48.8,0 0,6.3 0,12.4 0,18.5 10.2,0 19.9,0 30,0 0,-6.3 0,-12.4 0,-18.5 32.8,0 65.2,0 98,0 0,6.3 0,12.4 0,18.4 10.2,0 19.9,0 30,0 0,-6.4 0,-12.4 0,-18.7 16.7,0.1 32.9,0.1 49,0.1 z"
     id="path4180"
     inkscape:export-xdpi="5.792706"
     inkscape:export-ydpi="5.792706"
     style="fill:#920000;fill-opacity:1"
     inkscape:connector-curvature="0" /><path
     class="st0"
     d="m 135.3,85.851696 c 43.5,0 87,0.1 130.5,0.1 0,13 0,26.000004 0,39.000004 -16.1,0 -32.3,0 -48.8,0 0,-3.3 0,-6.4 0,-9.7 -10.2,0 -19.9,0 -30,0 0,3.1 0,6.1 0,9.5 -32.8,0 -65.2,0 -98,0 0,-3.1 0,-6.2 0,-9.5 -10.2,0 -19.9,0 -30,0 0,3.1 0,6.2 0,9.5 -16.5,0 -32.5,0 -48.8,0 0,-12.9 0,-25.600004 0,-38.900004 37.4,0 74.7,0 111.9,0 4.3,0 8.7,0 13.2,0 z"
     id="path4182"
     inkscape:export-xdpi="5.792706"
     inkscape:export-ydpi="5.792706"
     style="fill:#920000;fill-opacity:1"
     inkscape:connector-curvature="0" /><ellipse
     style="opacity:1;fill:none;fill-opacity:1;stroke:#373737;stroke-width:12.27183247;stroke-miterlimit:4;stroke-dasharray:none;stroke-opacity:1"
     id="path4196"
     cx="232.69458"
     cy="40.844868"
     rx="24.560638"
     ry="24.70895"
     inkscape:export-xdpi="5.792706"
     inkscape:export-ydpi="5.792706" /><path
     d="m 192.45527,235.84744 -27.62181,-27.62182 27.62181,-27.62182 6.56018,6.56019 -21.17673,21.17672 21.06164,21.06164 z m 36.82908,0 -6.56017,-6.56018 21.17671,-21.17673 -21.06162,-21.06163 6.44508,-6.4451 27.62182,27.62182 z"
     id="path1"
     style="fill:#ffffff;stroke-width:0.115164;stroke-dasharray:none" /></svg>
