<?xml version="1.0" encoding="UTF-8" standalone="no"?>
<!-- Generator: Adobe Illustrator 19.0.1, SVG Export Plug-In . SVG Version: 6.00 Build 0)  -->

<svg
   xmlns:dc="http://purl.org/dc/elements/1.1/"
   xmlns:cc="http://creativecommons.org/ns#"
   xmlns:rdf="http://www.w3.org/1999/02/22-rdf-syntax-ns#"
   xmlns:svg="http://www.w3.org/2000/svg"
   xmlns="http://www.w3.org/2000/svg"
   xmlns:sodipodi="http://sodipodi.sourceforge.net/DTD/sodipodi-0.dtd"
   xmlns:inkscape="http://www.inkscape.org/namespaces/inkscape"
   version="1.1"
   id="Layer_1"
   x="0px"
   y="0px"
   viewBox="0 0 612 792"
   style="enable-background:new 0 0 612 792;"
   xml:space="preserve"
   inkscape:version="0.91 r13725"
   sodipodi:docname="Untitled-1.svg"><metadata
     id="metadata4190"><rdf:RDF><cc:Work
         rdf:about=""><dc:format>image/svg+xml</dc:format><dc:type
           rdf:resource="http://purl.org/dc/dcmitype/StillImage" /></cc:Work></rdf:RDF></metadata><defs
     id="defs4188" /><sodipodi:namedview
     pagecolor="#ffffff"
     bordercolor="#666666"
     borderopacity="1"
     objecttolerance="10"
     gridtolerance="10"
     guidetolerance="10"
     inkscape:pageopacity="0"
     inkscape:pageshadow="2"
     inkscape:window-width="1920"
     inkscape:window-height="1017"
     id="namedview4186"
     showgrid="false"
     inkscape:zoom="9.5353535"
     inkscape:cx="93.347144"
     inkscape:cy="442.48425"
     inkscape:window-x="-8"
     inkscape:window-y="-8"
     inkscape:window-maximized="1"
     inkscape:current-layer="Layer_1" /><style
     type="text/css"
     id="style4178">
	.st0{fill:#921B1D;}
	.st1{fill:#383837;}
</style><path
     style="fill:#383837"
     d="m 235.80078,264.90039 c -7.8,24.3 -15.40565,48.94308 -22.90565,72.64308 l 13.09103,0 c 5.9,-19.1 12.11345,-39.14425 18.11345,-58.34425 17.7,4.3 51.20117,12.30078 51.20117,12.30078 l 2.59961,-12.69922 c 0,0 -41.39961,-9.30039 -62.09961,-13.90039 z"
     id="path4184"
     inkscape:connector-curvature="0"
     sodipodi:nodetypes="ccccccc"
     inkscape:export-xdpi="5.792706"
     inkscape:export-ydpi="5.792706" /><path
     class="st0"
     d="M356.8,386.8c0,35.7,0,71.3,0,107c-85.2,0-170.4,0-255.8,0c0-35.9,0-71.2,0-106.8c16.3,0,32.4,0,48.8,0  c0,6.3,0,12.4,0,18.5c10.2,0,19.9,0,30,0c0-6.3,0-12.4,0-18.5c32.8,0,65.2,0,98,0c0,6.3,0,12.4,0,18.4c10.2,0,19.9,0,30,0  c0-6.4,0-12.4,0-18.7C324.5,386.8,340.7,386.8,356.8,386.8z"
     id="path4180"
     inkscape:export-xdpi="5.792706"
     inkscape:export-ydpi="5.792706"
     style="fill:#920000;fill-opacity:1" /><path
     class="st0"
     d="M226.3,336.6c43.5,0,87,0.1,130.5,0.1c0,13,0,26,0,39c-16.1,0-32.3,0-48.8,0c0-3.3,0-6.4,0-9.7  c-10.2,0-19.9,0-30,0c0,3.1,0,6.1,0,9.5c-32.8,0-65.2,0-98,0c0-3.1,0-6.2,0-9.5c-10.2,0-19.9,0-30,0c0,3.1,0,6.2,0,9.5  c-16.5,0-32.5,0-48.8,0c0-12.9,0-25.6,0-38.9c37.4,0,74.7,0,111.9,0C217.4,336.6,221.8,336.6,226.3,336.6z"
     id="path4182"
     inkscape:export-xdpi="5.792706"
     inkscape:export-ydpi="5.792706"
     style="fill:#920000;fill-opacity:1" /><ellipse
     style="opacity:1;fill:none;fill-opacity:1;stroke:#373737;stroke-width:12.27183247;stroke-miterlimit:4;stroke-dasharray:none;stroke-opacity:1"
     id="path4196"
     cx="323.69458"
     cy="291.59317"
     rx="24.560638"
     ry="24.70895"
     inkscape:export-xdpi="5.792706"
     inkscape:export-ydpi="5.792706" /></svg>